<svg width="48" height="48" viewBox="0 0 48 48" fill="none" xmlns="http://www.w3.org/2000/svg">
<g filter="url(#filter0_d_32_47)">
<path d="M35.6667 5H12.3333C10.5 5 9 6.5 9 8.33333V31.6667C9 33.5 10.5 35 12.3333 35H35.6667C37.5 35 39 33.5 39 31.6667V8.33333C39 6.5 37.5 5 35.6667 5ZM35.6667 31.6667H12.3333V8.33333H35.6667V31.6667Z" fill="#9FA2B4"/>
<path d="M19 20H15.6666V28.3333H19V20Z" fill="#9FA2B4"/>
<path d="M32.3333 11.6666H29V28.3333H32.3333V11.6666Z" fill="#9FA2B4"/>
<path d="M25.6667 23.3334H22.3334V28.3334H25.6667V23.3334Z" fill="#9FA2B4"/>
<path d="M25.6667 16.6666H22.3334V20H25.6667V16.6666Z" fill="#9FA2B4"/>
<rect x="4.5" y="0.5" width="39" height="39" stroke="#9FA2B4" shape-rendering="crispEdges"/>
</g>
<defs>
<filter id="filter0_d_32_47" x="0" y="0" width="48" height="48" filterUnits="userSpaceOnUse" color-interpolation-filters="sRGB">
<feFlood flood-opacity="0" result="BackgroundImageFix"/>
<feColorMatrix in="SourceAlpha" type="matrix" values="0 0 0 0 0 0 0 0 0 0 0 0 0 0 0 0 0 0 127 0" result="hardAlpha"/>
<feOffset dy="4"/>
<feGaussianBlur stdDeviation="2"/>
<feComposite in2="hardAlpha" operator="out"/>
<feColorMatrix type="matrix" values="0 0 0 0 0 0 0 0 0 0 0 0 0 0 0 0 0 0 0.25 0"/>
<feBlend mode="normal" in2="BackgroundImageFix" result="effect1_dropShadow_32_47"/>
<feBlend mode="normal" in="SourceGraphic" in2="effect1_dropShadow_32_47" result="shape"/>
</filter>
</defs>
</svg>
