<svg width="40" height="40" viewBox="0 0 40 40" fill="none" xmlns="http://www.w3.org/2000/svg">
<path d="M39.7934 20.5378L35.2669 29.2674C34.9146 29.9468 34.4103 30.5104 33.804 30.9022C33.1978 31.2939 32.5109 31.5 31.8118 31.5H6.81406C5.65638 31.5 4.93506 30.0872 5.51838 28.9622L10.0449 20.2326C10.3971 19.5532 10.9015 18.9896 11.5078 18.5978C12.114 18.2061 12.8009 18 13.5 18H38.4977C39.6554 18 40.3767 19.4128 39.7934 20.5378ZM13.5 15.75H34V12.375C34 10.511 32.6569 9 31 9H21L17 4.5H7C5.34312 4.5 4 6.01102 4 7.875V27.4251L8.31731 19.0988C9.38838 17.0332 11.3743 15.75 13.5 15.75Z" fill="#9FA2B4"/>
</svg>
