<svg width="40" height="40" viewBox="0 0 40 40" fill="none" xmlns="http://www.w3.org/2000/svg">
<path d="M36.2126 0H3.29205C1.47457 0 0 1.91964 0 4.28571V35.7143C0 38.0804 1.47457 40 3.29205 40H36.2126C38.0301 40 39.5046 38.0804 39.5046 35.7143V4.28571C39.5046 1.91964 38.0301 0 36.2126 0ZM36.2126 35.7143H3.29205V4.28571H36.2126V35.7143ZM14.2656 20C16.6866 20 18.655 17.4375 18.655 14.2857C18.655 11.1339 16.6866 8.57143 14.2656 8.57143C11.8445 8.57143 9.87616 11.1339 9.87616 14.2857C9.87616 17.4375 11.8445 20 14.2656 20ZM8.1204 31.4286H20.4107C21.2612 31.4286 21.947 30.6607 21.947 29.7143V28C21.947 25.1607 19.8826 22.8571 17.3381 22.8571C16.5974 22.8571 16.0556 23.5714 14.2656 23.5714C12.4206 23.5714 11.9748 22.8571 11.193 22.8571C8.6485 22.8571 6.58411 25.1607 6.58411 28V29.7143C6.58411 30.6607 7.26995 31.4286 8.1204 31.4286ZM24.6904 25.7143H32.3719C32.6736 25.7143 32.9205 25.3929 32.9205 25V23.5714C32.9205 23.1786 32.6736 22.8571 32.3719 22.8571H24.6904C24.3886 22.8571 24.1417 23.1786 24.1417 23.5714V25C24.1417 25.3929 24.3886 25.7143 24.6904 25.7143ZM24.6904 20H32.3719C32.6736 20 32.9205 19.6786 32.9205 19.2857V17.8571C32.9205 17.4643 32.6736 17.1429 32.3719 17.1429H24.6904C24.3886 17.1429 24.1417 17.4643 24.1417 17.8571V19.2857C24.1417 19.6786 24.3886 20 24.6904 20ZM24.6904 14.2857H32.3719C32.6736 14.2857 32.9205 13.9643 32.9205 13.5714V12.1429C32.9205 11.75 32.6736 11.4286 32.3719 11.4286H24.6904C24.3886 11.4286 24.1417 11.75 24.1417 12.1429V13.5714C24.1417 13.9643 24.3886 14.2857 24.6904 14.2857Z" fill="#9FA2B4"/>
</svg>
