<svg width="22" height="22" viewBox="0 0 22 22" fill="none" xmlns="http://www.w3.org/2000/svg">
<path d="M20.8691 18.8833L16.7676 14.7817C16.5625 14.6177 16.3164 14.4946 16.0703 14.4946H15.4141C16.5215 13.0591 17.2188 11.2544 17.2188 9.24463C17.2188 4.56885 13.3633 0.713379 8.6875 0.713379C3.9707 0.713379 0.15625 4.56885 0.15625 9.24463C0.15625 13.9614 3.9707 17.7759 8.6875 17.7759C10.6562 17.7759 12.4609 17.1196 13.9375 15.9712V16.6685C13.9375 16.9146 14.0195 17.1606 14.2246 17.3657L18.2852 21.4263C18.6953 21.8364 19.3105 21.8364 19.6797 21.4263L20.8281 20.2778C21.2383 19.9087 21.2383 19.2935 20.8691 18.8833ZM8.6875 14.4946C5.77539 14.4946 3.4375 12.1567 3.4375 9.24463C3.4375 6.37354 5.77539 3.99463 8.6875 3.99463C11.5586 3.99463 13.9375 6.37354 13.9375 9.24463C13.9375 12.1567 11.5586 14.4946 8.6875 14.4946Z" fill="white"/>
</svg>
