<svg width="40" height="40" viewBox="0 0 40 40" fill="none" xmlns="http://www.w3.org/2000/svg">
<path d="M38.1562 26.6641C38.3187 25.5625 38.3187 24.4375 38.1562 23.3359L39.7687 22.1719C39.9562 22.0391 40.0375 21.7656 39.975 21.5078C39.5562 19.8203 38.8375 18.2891 37.9 17.0234C37.7563 16.8281 37.525 16.7812 37.3375 16.9141L35.725 18.0781C35.0437 17.3516 34.2625 16.7891 33.4188 16.4141V14.0859C33.4188 13.8203 33.2687 13.5859 33.0625 13.5313C31.6688 13.1406 30.25 13.1563 28.925 13.5313C28.7187 13.5859 28.5688 13.8203 28.5688 14.0859V16.4141C27.725 16.7891 26.9438 17.3516 26.2625 18.0781L24.65 16.9141C24.4687 16.7812 24.2312 16.8281 24.0875 17.0234C23.15 18.2891 22.4313 19.8203 22.0125 21.5078C21.95 21.7656 22.0375 22.0391 22.2188 22.1719L23.8312 23.3359C23.6687 24.4375 23.6687 25.5625 23.8312 26.6641L22.2188 27.8281C22.0312 27.9609 21.95 28.2344 22.0125 28.4922C22.4313 30.1797 23.15 31.7031 24.0875 32.9766C24.2312 33.1719 24.4625 33.2187 24.65 33.0859L26.2625 31.9219C26.9438 32.6484 27.725 33.2109 28.5688 33.5859V35.9141C28.5688 36.1797 28.7187 36.4141 28.925 36.4687C30.3187 36.8594 31.7375 36.8437 33.0625 36.4687C33.2687 36.4141 33.4188 36.1797 33.4188 35.9141V33.5859C34.2625 33.2109 35.0437 32.6484 35.725 31.9219L37.3375 33.0859C37.5188 33.2187 37.7563 33.1719 37.9 32.9766C38.8375 31.7109 39.5562 30.1797 39.975 28.4922C40.0375 28.2344 39.95 27.9609 39.7687 27.8281L38.1562 26.6641ZM31 28.7891C29.325 28.7891 27.9688 27.0859 27.9688 25C27.9688 22.9141 29.3312 21.2109 31 21.2109C32.6688 21.2109 34.0312 22.9141 34.0312 25C34.0312 27.0859 32.675 28.7891 31 28.7891ZM6 17.5C8.20625 17.5 10 15.2578 10 12.5C10 9.74219 8.20625 7.5 6 7.5C3.79375 7.5 2 9.74219 2 12.5C2 15.2578 3.79375 17.5 6 17.5ZM20 20C20.1187 20 20.2313 19.9609 20.35 19.9531C20.8688 18.2578 21.6312 16.6641 22.6187 15.3281C23.0812 14.7031 23.7375 14.3438 24.425 14.3438C24.8562 14.3438 25.2812 14.4844 25.65 14.7578L26.1437 15.1172C26.1937 15.0781 26.2438 15.0469 26.2938 15.0078C26.7313 13.8672 26.9937 12.6016 26.9937 11.2578C26.9937 6.42188 23.8625 2.50781 19.9937 2.50781C16.125 2.50781 13 6.41406 13 11.25C13 16.0859 16.1312 20 20 20ZM26.575 35.1953C26.4313 35.1016 26.2875 34.9922 26.15 34.8906C25.6375 35.2656 25.1937 35.6562 24.4312 35.6562C23.75 35.6562 23.0938 35.2969 22.625 34.6719C21.4813 33.125 20.6062 31.2422 20.1125 29.2344C19.4437 26.5391 21.6688 25.3516 21.725 25.3047C21.7188 25.1016 21.7188 24.8984 21.725 24.6953L21.2313 24.3359C20.9938 24.1641 20.7937 23.9453 20.6187 23.7031C20.4125 23.7187 20.2125 23.75 20.0063 23.75C18.4688 23.75 17.0313 23.2812 15.725 22.5H15.2063C11.225 22.5 8 26.5313 8 31.5V33.75C8 35.8203 9.34375 37.5 11 37.5H26.9625C26.7312 37.0312 26.575 36.5 26.575 35.9141V35.1953ZM10.8188 21.4531C10.0938 20.5547 9.1 20 8 20H4C1.79375 20 0 22.2422 0 25V27.5C0 28.8828 0.89375 30 2 30H6.11875C6.5125 26.2969 8.3 23.1797 10.8188 21.4531V21.4531Z" fill="#9FA2B4"/>
</svg>
